# xmcd CD database file
#
# Track frame offsets:
#	150
#	31273
#	56563
#	81363
#	118618
#	139743
#	171773
#	207518
#	227748
#	251338
#	272555
#
# Disc length: 4350 seconds
#
# Revision: 0
# Processed by: cddbd v1.5PL3 Copyright (c) Steve Scherf et al.
# Submitted via: CDex 1.51
#
DISCID=9510fc0b
DTITLE=Matteson-Phillips Tubajazz Consort - Superhorn
DYEAR=1988
DGENRE=Jazz
TTITLE0=Stompin' at The Savoy
TTITLE1=Little Ole Softy
TTITLE2=Noreen's Nocturn
TTITLE3=Things ain't what they used to be
TTITLE4=Georgia on my Mind
TTITLE5=Waltzing Matilda
TTITLE6=Gregory is here
TTITLE7=Lucky Southern
TTITLE8=Summertime
TTITLE9=Oleo
TTITLE10=Spoofy
EXTD=YEAR: 1988
EXTT0=
EXTT1=
EXTT2=
EXTT3=
EXTT4=
EXTT5=
EXTT6=
EXTT7=
EXTT8=
EXTT9=
EXTT10=
PLAYORDER=
